<?xml version="1.0" encoding="UTF-8"?>
<svg width="148px" height="25px" viewBox="0 0 148 25" version="1.1" xmlns="http://www.w3.org/2000/svg" xmlns:xlink="http://www.w3.org/1999/xlink">
    <title>logo-bookmark</title>
    <g id="Page-1" stroke="none" stroke-width="1" fill="none" fill-rule="evenodd">
        <g id="logo-bookmark" fill-rule="nonzero">
            <path d="M37,6.299 L42.227,6.299 C42.973,6.299 43.661,6.454 44.289,6.765 C44.918,7.076 45.412,7.5 45.773,8.035 C46.134,8.57 46.315,9.155 46.315,9.789 C46.315,10.461 46.15,11.043 45.82,11.535 C45.49,12.026 45.058,12.403 44.523,12.664 L44.523,12.814 C45.22,13.062 45.773,13.457 46.184,13.999 C46.594,14.54 46.8,15.19 46.8,15.949 C46.8,16.684 46.604,17.334 46.212,17.9 C45.8124946,18.472614 45.2635819,18.9246801 44.625,19.207 C43.96,19.512 43.222,19.664 42.413,19.664 L37,19.664 L37,6.299 Z M42.04,11.749 C42.588,11.749 43.026,11.597 43.356,11.292 C43.686,10.987 43.851,10.604 43.851,10.144 C43.851,9.696 43.692,9.32 43.375,9.014 C43.057,8.71 42.637,8.557 42.115,8.557 L39.52,8.557 L39.52,11.749 L42.04,11.749 L42.04,11.749 Z M42.32,17.368 C42.93,17.368 43.406,17.209 43.748,16.892 C44.09,16.575 44.261,16.161 44.261,15.651 C44.261,15.141 44.087,14.724 43.739,14.4 C43.39,14.076 42.892,13.915 42.245,13.915 L39.52,13.915 L39.52,17.368 L42.32,17.368 L42.32,17.368 Z M55.247,19.963 C53.94,19.963 52.755,19.655 51.691,19.039 C50.6412397,18.4374361 49.7736337,17.5632651 49.18,16.509 C48.57,15.439 48.265,14.263 48.265,12.981 C48.265,11.7 48.57,10.524 49.18,9.453 C49.773503,8.39923274 50.6407384,7.52543263 51.69,6.924 C52.756,6.308 53.94,6 55.248,6 C56.554,6 57.74,6.308 58.804,6.924 C59.8533925,7.52570677 60.7206406,8.39986513 61.314,9.454 C61.924,10.524 62.229,11.7 62.229,12.981 C62.229,14.263 61.924,15.439 61.314,16.509 C60.7206406,17.5631349 59.8533925,18.4372932 58.804,19.039 C57.74,19.655 56.554,19.963 55.248,19.963 L55.247,19.963 Z M55.247,17.573 C56.0372538,17.5810453 56.815806,17.3817524 57.505,16.995 C58.184129,16.6147119 58.7434918,16.0522318 59.12,15.371 C59.512,14.674 59.708,13.877 59.708,12.981 C59.708,12.085 59.512,11.289 59.12,10.592 C58.7434918,9.91076815 58.184129,9.34828811 57.505,8.968 C56.8159018,8.58089893 56.037344,8.38125986 55.247,8.389 C54.4590766,8.38031153 53.6828574,8.5800586 52.997,8.968 C52.3221363,9.35052344 51.7665552,9.91268155 51.392,10.592 C51,11.289 50.804,12.085 50.804,12.982 C50.804,13.877 51,14.674 51.392,15.371 C51.7665552,16.0503184 52.3221363,16.6124766 52.997,16.995 C53.6829541,17.3825926 54.4591674,17.5819932 55.247,17.573 L55.247,17.573 Z M70.6,19.963 C69.293,19.963 68.108,19.655 67.044,19.039 C65.9946075,18.4372932 65.1273594,17.5631349 64.534,16.509 C63.924,15.439 63.619,14.263 63.619,12.981 C63.619,11.7 63.924,10.524 64.533,9.453 C65.1267772,8.39910255 65.9943706,7.5252898 67.044,6.924 C68.108,6.308 69.294,6 70.6,6 C71.907,6 73.092,6.308 74.156,6.924 C75.2053925,7.52570677 76.0726406,8.39986513 76.666,9.454 C77.276,10.524 77.581,11.7 77.581,12.981 C77.581,14.263 77.276,15.439 76.667,16.509 C76.0733663,17.5632651 75.2057603,18.4374361 74.156,19.039 C73.092,19.655 71.906,19.963 70.6,19.963 L70.6,19.963 Z M70.6,17.573 C71.390592,17.5812205 72.1695113,17.381922 72.859,16.995 C73.5377605,16.6145638 74.0967635,16.0520973 74.473,15.371 C74.865,14.674 75.061,13.877 75.061,12.981 C75.061,12.085 74.865,11.289 74.473,10.592 C74.0967635,9.91090269 73.5377605,9.34843618 72.859,8.968 C72.1696072,8.5807294 71.3906822,8.38108463 70.6,8.389 C69.8120766,8.38031153 69.0358574,8.5800586 68.35,8.968 C67.6751363,9.35052344 67.1195552,9.91268155 66.745,10.592 C66.353,11.289 66.157,12.085 66.157,12.982 C66.157,13.877 66.353,14.674 66.745,15.371 C67.1198275,16.0504518 67.675768,16.6126232 68.351,16.995 C69.0366599,17.3824218 69.8125056,17.5818166 70.6,17.573 L70.6,17.573 Z M79.83,6.3 L82.35,6.3 L82.35,12.03 L82.5,12.03 L87.39,6.3 L90.433,6.3 L90.433,6.449 L85.6,11.973 L90.938,19.515 L90.938,19.664 L87.858,19.664 L83.864,13.971 L82.352,15.744 L82.352,19.664 L79.832,19.664 L79.832,6.299 L79.83,6.3 Z M93.779,6 L97.027,6 L100.573,15.39 L100.723,15.39 L104.268,6 L107.535,6 L107.535,19.365 L105.034,19.365 L105.034,12.776 L105.184,10.555 L105.034,10.555 L101.636,19.365 L99.676,19.365 L96.26,10.555 L96.111,10.555 L96.261,12.776 L96.261,19.366 L93.778,19.366 L93.778,6 L93.779,6 Z M114.579,6 L117.473,6 L122.494,19.365 L119.713,19.365 L118.593,16.173 L113.478,16.173 L112.358,19.365 L109.577,19.365 L114.579,6 Z M117.772,13.859 L116.596,10.499 L116.11,8.893 L115.961,8.893 L115.476,10.499 L114.281,13.859 L117.771,13.859 L117.772,13.859 Z M124.553,6 L129.425,6 C130.296,6 131.071,6.18 131.749,6.541 C132.427,6.902 132.953,7.403 133.326,8.044 C133.7,8.684 133.886,9.41 133.886,10.219 C133.886,11.077 133.616,11.839 133.074,12.505 C132.53899,13.1664347 131.831633,13.6671909 131.03,13.952 L131.012,14.082 L134.596,19.216 L134.596,19.366 L131.702,19.366 L128.249,14.344 L127.073,14.344 L127.073,19.365 L124.553,19.365 L124.553,6 Z M129.406,12.03 C129.979,12.03 130.446,11.855 130.806,11.507 C131.167,11.158 131.348,10.717 131.348,10.181 C131.348,9.671 131.176,9.236 130.834,8.875 C130.492,8.514 130.028,8.333 129.444,8.333 L127.073,8.333 L127.073,12.029 L129.406,12.029 L129.406,12.03 Z M136.636,6 L139.156,6 L139.156,11.73 L139.306,11.73 L144.196,6 L147.239,6 L147.239,6.15 L142.404,11.675 L147.744,19.216 L147.744,19.366 L144.664,19.366 L140.668,13.672 L139.156,15.445 L139.156,19.365 L136.636,19.365 L136.636,6 L136.636,6 Z" id="Shape" fill="#FFFFFF"></path>
            <g id="Group">
                <circle id="Oval" fill="#5267DF" cx="12.5" cy="12.5" r="12.5"></circle>
                <path d="M9,9 L9,19 L12.54,15.56 L16.078,19 L16.078,9 C16.078,7.8954305 15.1825695,7 14.078,7 L11,7 C9.8954305,7 9,7.8954305 9,9 Z" id="Path" fill="#FFFFFF"></path>
            </g>
        </g>
    </g>
</svg>